<svg width="40" height="40" viewBox="0 0 40 40" fill="none" xmlns="http://www.w3.org/2000/svg">
<circle cx="20" cy="20" r="20" fill="#4CC5E8"/>
<path d="M15.1167 28.0004C15.0687 27.7124 15.0447 27.4164 15.0447 27.1124C15.0447 26.0724 15.2207 25.1444 15.5727 24.3284C15.9407 23.4964 16.4127 22.7444 16.9887 22.0724C17.5647 21.3844 18.1727 20.7524 18.8127 20.1764C19.4687 19.5844 20.0767 19.0244 20.6367 18.4964C21.2127 17.9524 21.6847 17.4084 22.0527 16.8644C22.4207 16.3204 22.6047 15.7524 22.6047 15.1604C22.6047 14.4884 22.3567 13.9364 21.8607 13.5044C21.3647 13.0564 20.7247 12.8324 19.9407 12.8324C19.2687 12.8324 18.6527 12.9684 18.0927 13.2404C17.5487 13.4964 17.0367 13.8484 16.5567 14.2964L15.3567 12.8324C15.9967 12.2564 16.7007 11.7924 17.4687 11.4404C18.2527 11.0884 19.1567 10.9124 20.1807 10.9124C21.1247 10.9124 21.9487 11.0964 22.6527 11.4644C23.3567 11.8164 23.9007 12.3044 24.2847 12.9284C24.6847 13.5524 24.8847 14.2484 24.8847 15.0164C24.8847 15.7844 24.7167 16.4964 24.3807 17.1524C24.0447 17.8084 23.6127 18.4244 23.0847 19.0004C22.5567 19.5764 21.9887 20.1364 21.3807 20.6804C20.7727 21.2084 20.1887 21.7524 19.6287 22.3124C19.0687 22.8724 18.5887 23.4564 18.1887 24.0644C17.8047 24.6724 17.5647 25.3284 17.4687 26.0324H24.8607V28.0004H15.1167Z" fill="white"/>
</svg>
