<svg width="40" height="40" viewBox="0 0 40 40" fill="none" xmlns="http://www.w3.org/2000/svg">
<circle cx="20" cy="20" r="20" fill="#4CC5E8"/>
<path d="M19.2207 28.2884C18.1807 28.2884 17.2767 28.1524 16.5087 27.8804C15.7407 27.5924 15.0847 27.2484 14.5407 26.8484L15.5247 25.0484C15.9727 25.3844 16.4927 25.6804 17.0847 25.9364C17.6767 26.1924 18.3967 26.3204 19.2447 26.3204C20.3007 26.3204 21.1327 26.0404 21.7407 25.4804C22.3647 24.9204 22.6767 24.2244 22.6767 23.3924C22.6767 22.8004 22.5167 22.2644 22.1967 21.7844C21.8767 21.2884 21.3807 20.8884 20.7087 20.5844C20.0527 20.2804 19.1967 20.1284 18.1407 20.1284H16.7967V18.3764H18.0447C18.9887 18.3764 19.7647 18.2324 20.3727 17.9444C20.9967 17.6564 21.4607 17.2804 21.7647 16.8164C22.0687 16.3524 22.2207 15.8644 22.2207 15.3524C22.2207 14.6004 21.9327 13.9924 21.3567 13.5284C20.7967 13.0644 20.1007 12.8324 19.2687 12.8324C18.5167 12.8324 17.8447 12.9604 17.2527 13.2164C16.6767 13.4564 16.2047 13.7284 15.8367 14.0324L14.9487 12.3284C15.4287 12.0084 16.0447 11.6964 16.7967 11.3924C17.5487 11.0724 18.4287 10.9124 19.4367 10.9124C20.4927 10.9124 21.3887 11.1044 22.1247 11.4884C22.8607 11.8724 23.4207 12.3844 23.8047 13.0244C24.2047 13.6484 24.4047 14.3284 24.4047 15.0644C24.4047 16.0084 24.1647 16.8004 23.6847 17.4404C23.2207 18.0804 22.5567 18.6084 21.6927 19.0244C22.7007 19.4084 23.4847 19.9764 24.0447 20.7284C24.6207 21.4644 24.9087 22.3284 24.9087 23.3204C24.9087 24.1524 24.7007 24.9524 24.2847 25.7204C23.8847 26.4724 23.2607 27.0884 22.4127 27.5684C21.5807 28.0484 20.5167 28.2884 19.2207 28.2884Z" fill="white"/>
</svg>
