<svg width="31" height="27" viewBox="0 0 31 27" fill="none" xmlns="http://www.w3.org/2000/svg">
<path d="M11.741 26.4H0.641016V15.3C0.641016 13.3 0.841016 11.4333 1.24102 9.7C1.70768 7.9 2.37435 6.33333 3.24102 5C4.17435 3.66666 5.34102 2.6 6.74102 1.8C8.14102 0.999996 9.77435 0.599995 11.641 0.599995V5.6C10.5077 5.6 9.57435 5.9 8.84102 6.5C8.10768 7.03333 7.50768 7.76667 7.04102 8.7C6.57435 9.63333 6.24102 10.7 6.04102 11.9C5.90768 13.0333 5.84102 14.1667 5.84102 15.3H11.741V26.4ZM30.041 26.4H18.941V15.3C18.941 13.3 19.141 11.4333 19.541 9.7C20.0077 7.9 20.6744 6.33333 21.541 5C22.4743 3.66666 23.641 2.6 25.041 1.8C26.441 0.999996 28.0744 0.599995 29.941 0.599995V5.6C28.8077 5.6 27.8744 5.9 27.141 6.5C26.4077 7.03333 25.8077 7.76667 25.341 8.7C24.8744 9.63333 24.541 10.7 24.341 11.9C24.2077 13.0333 24.141 14.1667 24.141 15.3H30.041V26.4Z" fill="#4CC5E8"/>
</svg>
