<svg width="42" height="114" viewBox="0 0 42 114" fill="none" xmlns="http://www.w3.org/2000/svg">
<path d="M34.0226 1.73434C33.7547 1.25137 33.929 0.642685 34.412 0.374803C34.895 0.106923 35.5037 0.281284 35.7715 0.764253L34.0226 1.73434ZM1.50233 113.825C0.95005 113.823 0.504087 113.374 0.506244 112.821L0.541403 103.822C0.54356 103.269 0.993021 102.823 1.5453 102.825C2.09758 102.828 2.54355 103.277 2.54139 103.829L2.51014 111.829L10.5101 111.861C11.0624 111.863 11.5083 112.312 11.5062 112.864C11.504 113.417 11.0545 113.863 10.5023 113.861L1.50233 113.825ZM35.7715 0.764253C41.8823 11.7815 44.0885 29.4571 39.499 49.5849C34.9027 69.7423 23.4785 92.4328 2.21058 113.535L0.801897 112.115C21.8114 91.2695 33.0404 68.9133 37.549 49.1403C42.0644 29.3379 39.8272 12.1997 34.0226 1.73434L35.7715 0.764253Z" fill="black"/>
</svg>
