<svg width="28" height="77" viewBox="0 0 28 77" fill="none" xmlns="http://www.w3.org/2000/svg">
<path d="M3.19975 1.19717C3.30803 0.655601 2.95678 0.128797 2.41522 0.0205167C1.87365 -0.0877641 1.34685 0.263483 1.23856 0.805049L3.19975 1.19717ZM26.4323 76.4987C26.9841 76.5225 27.4507 76.0946 27.4746 75.5428L27.8634 66.5512C27.8873 65.9995 27.4593 65.5328 26.9075 65.509C26.3558 65.4851 25.8891 65.9131 25.8653 66.4648L25.5196 74.4574L17.5271 74.1117C16.9753 74.0879 16.5087 74.5158 16.4848 75.0676C16.461 75.6194 16.8889 76.086 17.4407 76.1099L26.4323 76.4987ZM1.23856 0.805049C0.713781 3.42978 -6.01301 41.5538 25.7385 76.1755L27.2125 74.8237C-3.89895 40.9 2.72372 3.57804 3.19975 1.19717L1.23856 0.805049Z" fill="black"/>
</svg>
